<svg width="527" height="520" viewBox="0 0 527 520" fill="none" xmlns="http://www.w3.org/2000/svg">
<path d="M363.263 38.8856C293.363 83.7635 294.106 87.2262 171.647 290.771C62.4283 300.12 -2.88492 304.015 5.41136 307.467C51.5505 326.667 172.801 389.542 201.17 518.758C204.728 484.254 229.997 356.961 234.745 349.204C487.517 197.28 472.425 176.424 516.705 79.8885C443.438 118.121 374.102 150.266 442.428 6.75778C412.573 12.5471 386.566 23.9323 363.263 38.8856ZM371.284 51.2192C380.02 45.8881 391.738 48.4675 397.241 56.9273C402.749 65.3828 400.082 76.723 391.342 82.0496C382.606 87.3806 370.893 84.8012 365.389 76.3415C359.879 67.8839 362.544 56.5459 371.284 51.2192Z" fill="url(#paint0_radial)" stroke="black" stroke-width="9"/>
<defs>
<radialGradient id="paint0_radial" cx="0" cy="0" r="1" gradientUnits="userSpaceOnUse" gradientTransform="translate(372.022 79.0359) rotate(144.049) scale(449.532 187.243)">
<stop stop-color="#3F9BCD"/>
<stop offset="1" stop-color="#3C8BB9"/>
</radialGradient>
</defs>
</svg>
